<?xml version="1.0" standalone="no"?>
<!DOCTYPE svg PUBLIC "-//W3C//DTD SVG 1.1//EN" "http://www.w3.org/Graphics/SVG/1.1/DTD/svg11.dtd">
<svg xmlns="http://www.w3.org/2000/svg" id="Layer_2" viewBox="0 0 858.61 395.4" width="858.6099853515625" height="395.3999938964844"><g id="Layer_1-2"><g><g><path d="M133.16,149.16l-38.58,2.37c-.66-3.3-2.08-6.28-4.25-8.95-2.18-2.67-5.03-4.81-8.56-6.43-3.53-1.62-7.73-2.42-12.61-2.42-6.53,0-12.04,1.37-16.52,4.11-4.49,2.74-6.73,6.38-6.73,10.93,0,3.63,1.45,6.69,4.35,9.2,2.9,2.51,7.88,4.52,14.94,6.03l27.5,5.54c14.77,3.03,25.79,7.91,33.04,14.64,7.25,6.73,10.88,15.57,10.88,26.51,0,9.96-2.92,18.7-8.76,26.22-5.84,7.52-13.82,13.37-23.94,17.56-10.12,4.19-21.78,6.28-34.97,6.28-20.12,0-36.13-4.2-48.03-12.61-11.91-8.41-18.88-19.87-20.92-34.38l41.45-2.18c1.25,6.13,4.29,10.8,9.1,14,4.81,3.2,10.98,4.8,18.5,4.8s13.34-1.43,17.86-4.3c4.52-2.87,6.81-6.58,6.88-11.13-.07-3.82-1.68-6.97-4.85-9.45-3.17-2.47-8.05-4.37-14.64-5.69l-26.31-5.24c-14.84-2.97-25.87-8.11-33.09-15.43-7.22-7.32-10.83-16.65-10.83-28,0-9.76,2.65-18.17,7.96-25.23,5.31-7.06,12.79-12.5,22.46-16.32,9.66-3.82,20.99-5.74,33.98-5.74,19.19,0,34.31,4.06,45.36,12.17,11.05,8.11,17.49,19.16,19.34,33.14Z"/><path d="M166.29,86.24c-6.27,0-11.62-2.09-16.08-6.28-4.45-4.19-6.68-9.22-6.68-15.09s2.23-10.8,6.68-14.99c4.45-4.19,9.81-6.28,16.08-6.28s11.62,2.09,16.08,6.28c4.45,4.19,6.68,9.18,6.68,14.99s-2.23,10.9-6.68,15.09c-4.45,4.19-9.81,6.28-16.08,6.28Zm-21.17,171.54V105.83h42.14v151.95h-42.14Z"/><path d="M271.25,317.93c-13.65,0-25.34-1.86-35.07-5.59-9.73-3.73-17.46-8.79-23.2-15.19-5.74-6.4-9.46-13.59-11.18-21.57l38.98-5.24c1.19,3.03,3.07,5.87,5.64,8.51,2.57,2.64,5.99,4.76,10.24,6.38,4.25,1.62,9.45,2.42,15.58,2.42,9.17,0,16.73-2.23,22.7-6.68,5.97-4.45,8.95-11.89,8.95-22.31v-27.8h-1.78c-1.85,4.22-4.62,8.21-8.31,11.97-3.69,3.76-8.44,6.83-14.25,9.2-5.8,2.38-12.73,3.56-20.77,3.56-11.41,0-21.78-2.65-31.11-7.96-9.33-5.31-16.75-13.46-22.26-24.44-5.51-10.98-8.26-24.88-8.26-41.7s2.8-31.59,8.41-43.13c5.6-11.54,13.07-20.18,22.41-25.92,9.33-5.74,19.57-8.61,30.72-8.61,8.51,0,15.63,1.43,21.37,4.3,5.74,2.87,10.37,6.43,13.9,10.68,3.53,4.25,6.25,8.43,8.16,12.51h1.58v-25.52h41.85v153.44c0,12.92-3.17,23.74-9.5,32.45-6.33,8.71-15.09,15.25-26.27,19.64-11.18,4.39-24.02,6.58-38.53,6.58Zm.89-93.98c6.79,0,12.55-1.7,17.26-5.09,4.71-3.4,8.34-8.28,10.88-14.64,2.54-6.36,3.81-14,3.81-22.9s-1.25-16.64-3.76-23.2c-2.51-6.56-6.13-11.66-10.88-15.28-4.75-3.63-10.52-5.44-17.31-5.44s-12.76,1.86-17.51,5.59c-4.75,3.73-8.34,8.89-10.78,15.48-2.44,6.6-3.66,14.21-3.66,22.85s1.24,16.34,3.71,22.7c2.47,6.37,6.07,11.28,10.78,14.74,4.71,3.46,10.54,5.19,17.46,5.19Z"/><path d="M361.07,257.78V105.83h40.16v26.81h1.78c3.17-8.9,8.44-15.93,15.83-21.07,7.38-5.14,16.22-7.72,26.51-7.72s19.29,2.59,26.61,7.77c7.32,5.18,12.2,12.19,14.64,21.02h1.58c3.1-8.71,8.72-15.68,16.87-20.92s17.79-7.86,28.94-7.86c14.18,0,25.7,4.5,34.57,13.5s13.31,21.75,13.31,38.24v102.19h-42.04v-93.88c0-8.44-2.24-14.77-6.73-18.99-4.49-4.22-10.09-6.33-16.82-6.33-7.65,0-13.62,2.42-17.91,7.27-4.29,4.85-6.43,11.23-6.43,19.14v92.79h-40.86v-94.77c0-7.45-2.13-13.39-6.38-17.81-4.25-4.42-9.84-6.63-16.77-6.63-4.68,0-8.89,1.17-12.61,3.51-3.73,2.34-6.68,5.61-8.85,9.79-2.18,4.19-3.26,9.09-3.26,14.69v91.21h-42.14Z"/><path d="M640.33,260.65c-9.7,0-18.34-1.7-25.92-5.09-7.58-3.4-13.57-8.44-17.96-15.14-4.39-6.69-6.58-15.05-6.58-25.08,0-8.44,1.55-15.53,4.65-21.27,3.1-5.74,7.32-10.35,12.66-13.85,5.34-3.5,11.43-6.13,18.25-7.91,6.83-1.78,14-3.03,21.52-3.76,8.84-.92,15.96-1.8,21.37-2.62,5.41-.82,9.33-2.06,11.77-3.71,2.44-1.65,3.66-4.09,3.66-7.32v-.59c0-6.26-1.96-11.11-5.89-14.54-3.92-3.43-9.48-5.14-16.67-5.14-7.58,0-13.62,1.67-18.1,5-4.49,3.33-7.45,7.5-8.9,12.51l-38.98-3.17c1.98-9.23,5.87-17.23,11.67-23.99,5.8-6.76,13.31-11.97,22.51-15.63,9.2-3.66,19.87-5.49,32-5.49,8.44,0,16.54,.99,24.29,2.97,7.75,1.98,14.64,5.05,20.68,9.2,6.03,4.15,10.8,9.48,14.29,15.98,3.5,6.5,5.24,14.26,5.24,23.3v102.49h-39.97v-21.07h-1.19c-2.44,4.75-5.71,8.92-9.79,12.51-4.09,3.6-9,6.4-14.74,8.41-5.74,2.01-12.37,3.02-19.88,3.02Zm12.07-29.08c6.2,0,11.67-1.24,16.42-3.71,4.75-2.47,8.47-5.82,11.18-10.04,2.7-4.22,4.06-9,4.06-14.34v-16.12c-1.32,.86-3.12,1.63-5.39,2.32s-4.83,1.32-7.67,1.88c-2.84,.56-5.67,1.06-8.51,1.48-2.84,.43-5.41,.81-7.72,1.14-4.95,.73-9.27,1.88-12.96,3.46-3.69,1.58-6.56,3.71-8.61,6.38-2.04,2.67-3.07,5.98-3.07,9.94,0,5.74,2.09,10.11,6.28,13.11,4.19,3,9.51,4.5,15.98,4.5Z"/></g><path d="M794.29,24.39v43.76c11.35,.09,20.56,9.34,20.56,20.71s-9.29,20.72-20.72,20.72c-5.61,0-10.69-2.25-14.43-5.88l-30.67,31.18c11.64,11.4,27.55,18.45,45.09,18.45,35.55,0,64.47-28.92,64.47-64.47s-28.84-64.38-64.31-64.47Z"/><path d="M788.41,128.94v-43.76c-11.35-.09-20.56-9.34-20.56-20.71s9.29-20.72,20.72-20.72c5.61,0,10.69,2.25,14.43,5.88l30.67-31.18c-11.64-11.4-27.55-18.45-45.09-18.45-35.55,0-64.47,28.92-64.47,64.47s28.84,64.38,64.31,64.47Z"/><g><path d="M378.34,289.27v81.84h-14.47v-81.84h14.47Z"/><path d="M415.88,372.31c-6.15,0-11.46-1.29-15.92-3.86-4.46-2.57-7.89-6.22-10.29-10.95-2.4-4.73-3.6-10.3-3.6-16.72s1.21-11.86,3.62-16.64c2.41-4.78,5.79-8.51,10.13-11.19,4.34-2.68,9.44-4.02,15.31-4.02,3.78,0,7.36,.61,10.73,1.82,3.37,1.21,6.35,3.08,8.95,5.61,2.6,2.53,4.64,5.75,6.13,9.65,1.49,3.9,2.24,8.55,2.24,13.93v4.44h-50.31v-9.75h36.44c-.03-2.77-.62-5.24-1.8-7.41-1.17-2.17-2.8-3.88-4.9-5.13-2.09-1.25-4.52-1.88-7.29-1.88-2.96,0-5.55,.71-7.79,2.14-2.24,1.42-3.98,3.29-5.21,5.59-1.24,2.3-1.87,4.83-1.9,7.57v8.51c0,3.57,.65,6.63,1.96,9.17,1.31,2.54,3.13,4.49,5.47,5.83,2.34,1.35,5.09,2.02,8.23,2.02,2.1,0,4.01-.3,5.71-.9,1.7-.6,3.18-1.49,4.44-2.66,1.25-1.17,2.2-2.62,2.84-4.36l13.51,1.52c-.85,3.57-2.47,6.68-4.86,9.33-2.38,2.65-5.43,4.7-9.13,6.15-3.7,1.45-7.94,2.18-12.71,2.18Z"/><path d="M465.36,335.14v35.96h-14.47v-61.38h13.83v10.43h.72c1.41-3.44,3.67-6.17,6.77-8.19,3.1-2.02,6.95-3.04,11.53-3.04,4.24,0,7.93,.91,11.09,2.72,3.16,1.81,5.61,4.44,7.35,7.87s2.6,7.61,2.58,12.51v39.08h-14.47v-36.84c0-4.1-1.06-7.31-3.18-9.63-2.12-2.32-5.04-3.48-8.77-3.48-2.53,0-4.78,.55-6.73,1.66s-3.49,2.7-4.6,4.77c-1.11,2.08-1.66,4.6-1.66,7.55Z"/><path d="M537.78,372.19c-4.82,0-9.14-1.24-12.95-3.72s-6.82-6.07-9.03-10.79-3.32-10.44-3.32-17.18,1.12-12.58,3.38-17.28c2.25-4.7,5.29-8.26,9.13-10.67,3.84-2.41,8.11-3.62,12.83-3.62,3.6,0,6.55,.61,8.87,1.82,2.32,1.21,4.16,2.66,5.51,4.36,1.36,1.69,2.41,3.28,3.16,4.78h.6v-30.61h14.51v81.84h-14.23v-9.67h-.88c-.75,1.49-1.83,3.07-3.24,4.74-1.41,1.67-3.28,3.08-5.59,4.26-2.32,1.17-5.24,1.76-8.75,1.76Zm4.04-11.87c3.06,0,5.67-.83,7.83-2.5,2.16-1.66,3.8-3.99,4.92-6.97,1.12-2.98,1.68-6.46,1.68-10.43s-.55-7.42-1.66-10.35c-1.11-2.93-2.73-5.21-4.88-6.83-2.14-1.62-4.78-2.44-7.89-2.44s-5.91,.84-8.07,2.52c-2.16,1.68-3.78,4-4.88,6.95-1.09,2.96-1.64,6.34-1.64,10.15s.55,7.25,1.66,10.25c1.1,3,2.74,5.35,4.92,7.07,2.17,1.72,4.84,2.58,8.01,2.58Z"/><path d="M588.71,301.02c-2.29,0-4.26-.77-5.91-2.3-1.65-1.53-2.48-3.38-2.48-5.53s.83-4.04,2.48-5.58c1.65-1.53,3.62-2.3,5.91-2.3s4.3,.77,5.93,2.3c1.64,1.53,2.46,3.39,2.46,5.58s-.82,4-2.46,5.53c-1.64,1.53-3.62,2.3-5.93,2.3Zm-7.27,70.09v-61.38h14.47v61.38h-14.47Z"/><path d="M620.73,335.14v35.96h-14.47v-61.38h13.83v10.43h.72c1.41-3.44,3.67-6.17,6.77-8.19,3.1-2.02,6.95-3.04,11.53-3.04,4.24,0,7.93,.91,11.09,2.72,3.16,1.81,5.61,4.44,7.35,7.87s2.6,7.61,2.58,12.51v39.08h-14.47v-36.84c0-4.1-1.06-7.31-3.18-9.63-2.12-2.32-5.04-3.48-8.77-3.48-2.53,0-4.78,.55-6.73,1.66s-3.49,2.7-4.6,4.77c-1.11,2.08-1.66,4.6-1.66,7.55Z"/><path d="M697.07,395.4c-5.19,0-9.66-.7-13.39-2.1s-6.73-3.27-8.99-5.61c-2.26-2.34-3.84-4.94-4.71-7.79l13.03-3.16c.58,1.2,1.44,2.39,2.56,3.58,1.12,1.19,2.63,2.17,4.54,2.96,1.9,.79,4.31,1.18,7.21,1.18,4.1,0,7.5-.99,10.19-2.98,2.69-1.99,4.04-5.24,4.04-9.77v-11.63h-.72c-.75,1.49-1.83,3.02-3.26,4.6-1.43,1.57-3.3,2.89-5.63,3.96s-5.25,1.6-8.77,1.6c-4.71,0-8.98-1.11-12.81-3.34-3.82-2.22-6.86-5.55-9.11-9.99-2.25-4.44-3.38-10-3.38-16.68s1.12-12.43,3.38-17.08c2.25-4.65,5.29-8.18,9.13-10.59,3.84-2.41,8.11-3.62,12.83-3.62,3.6,0,6.56,.61,8.89,1.82,2.33,1.21,4.19,2.66,5.57,4.36,1.38,1.69,2.44,3.28,3.16,4.78h.8v-10.15h14.27v62.38c0,5.25-1.25,9.59-3.76,13.03s-5.93,6.01-10.27,7.71c-4.34,1.71-9.27,2.56-14.79,2.56Zm.12-36.52c3.06,0,5.67-.75,7.83-2.24,2.16-1.49,3.8-3.64,4.92-6.43,1.12-2.8,1.68-6.15,1.68-10.07s-.55-7.25-1.66-10.15-2.73-5.16-4.88-6.77c-2.14-1.61-4.78-2.42-7.89-2.42s-5.91,.84-8.07,2.52c-2.16,1.68-3.78,3.98-4.88,6.89-1.09,2.92-1.64,6.23-1.64,9.93s.55,7.04,1.66,9.85c1.1,2.81,2.74,5,4.92,6.55,2.17,1.56,4.84,2.34,8.01,2.34Z"/></g></g></g></svg>