<?xml version="1.0" standalone="no"?>
<!DOCTYPE svg PUBLIC "-//W3C//DTD SVG 1.1//EN" "http://www.w3.org/Graphics/SVG/1.1/DTD/svg11.dtd">
<svg xmlns="http://www.w3.org/2000/svg" width="25" height="25" viewBox="0 0 25 25" fill="none">
<path d="M13.0453 4.4856V11.4473C15.1566 11.4593 16.8694 12.9306 16.8694 14.7428C16.8694 16.555 15.1426 18.0382 13.0173 18.0382C11.9757 18.0382 11.0319 17.6794 10.3328 17.1052L4.63507 22.0633C6.79531 23.8755 9.75951 25 13.0173 25C19.6239 25 25 20.4007 25 14.7488C25 9.09684 19.6449 4.49756 13.0453 4.4856Z" fill="#FDE400"/>
<path d="M11.9547 20.5144V13.5526C9.8434 13.5407 8.13059 12.0694 8.13059 10.2572C8.13059 8.44498 9.85738 6.96172 11.9827 6.96172C13.0243 6.96172 13.9681 7.32057 14.6672 7.89474L20.3649 2.9366C18.2047 1.1244 15.2405 0 11.9827 0C5.37612 0 0 4.59928 0 10.2512C0 15.9031 5.35515 20.5024 11.9547 20.5144Z" fill="#FDE400"/>
</svg>